<svg width="246" height="119" viewBox="0 0 246 119" fill="none" xmlns="http://www.w3.org/2000/svg">
<path d="M127.925 116.795C126.329 116.795 124.733 116.795 123.172 116.756H122.798C121.262 116.78 119.666 116.795 118.075 116.795C78.9062 116.795 42.6644 108.871 42.3011 108.793C42.1636 108.763 38.9474 108.044 37.3025 107.544C36.6325 107.362 36.0312 106.988 35.5742 106.467C34.9278 105.779 34.5756 104.867 34.5921 103.925V15.1871C34.5857 14.2495 34.9368 13.3445 35.5742 12.6552C36.038 12.119 36.6546 11.7364 37.3418 11.5582C38.9523 11.0685 42.1685 10.3487 42.306 10.3193C42.6644 10.236 78.9361 2.21924 118.217 2.21924C119.794 2.21924 121.38 2.21924 122.926 2.25841H123.294C124.841 2.25841 126.447 2.21924 128.042 2.21924C167.157 2.21924 203.384 10.094 203.743 10.1723C203.885 10.2017 207.102 10.9216 208.746 11.4211L208.844 11.4505L208.908 11.4799C208.985 11.5045 209.061 11.534 209.134 11.568C209.819 11.8782 210.399 12.3814 210.801 13.0158C211.203 13.65 211.411 14.3877 211.398 15.1381V80.5161L211.349 103.876C211.355 104.64 211.13 105.388 210.7 106.021C210.23 106.768 209.496 107.313 208.643 107.549C207.067 108.039 203.797 108.763 203.66 108.793C203.32 108.871 167.128 116.795 127.925 116.795Z" fill="#00909D"/>
<path d="M128.028 3.44373C167.461 3.44373 203.463 11.3821 203.463 11.3821C203.463 11.3821 206.753 12.1168 208.373 12.6065C208.472 12.6554 208.52 12.6554 208.618 12.7044C209.093 12.9133 209.495 13.257 209.774 13.6925C210.054 14.128 210.199 14.636 210.19 15.153V80.5312L210.141 103.891C210.146 104.414 209.991 104.926 209.699 105.36C209.384 105.861 208.894 106.228 208.324 106.389C206.753 106.878 203.414 107.613 203.414 107.613C203.414 107.613 167.447 115.571 127.925 115.571C126.353 115.571 124.772 115.571 123.191 115.531H122.798C121.221 115.558 119.646 115.571 118.075 115.571C78.5827 115.571 42.5663 107.598 42.5663 107.598C42.5663 107.598 39.2765 106.863 37.6561 106.374C37.1973 106.255 36.7861 105.998 36.4777 105.639C36.0469 105.174 35.8175 104.558 35.8393 103.925V15.1873C35.8263 14.5558 36.0545 13.9431 36.4777 13.4732C36.7861 13.1142 37.1973 12.8578 37.6561 12.7387C39.2765 12.249 42.5663 11.5143 42.5663 11.5143C42.5663 11.5143 78.6021 3.44373 118.203 3.44373C119.759 3.44373 121.325 3.44373 122.887 3.48291H123.28C124.87 3.45353 126.447 3.44373 128.028 3.44373ZM128.028 0.995117C126.432 0.995117 124.827 0.995117 123.26 1.0343H122.911C121.365 1.0343 119.784 0.995117 118.203 0.995117C78.7839 0.995117 42.3846 9.04125 42.0213 9.12452C41.8838 9.1539 38.6627 9.87382 36.9638 10.388C36.0564 10.6418 35.2448 11.1582 34.6314 11.8718C33.8196 12.7871 33.3769 13.9702 33.3892 15.1922V103.94C33.3792 105.021 33.7248 106.076 34.373 106.943C35.0213 107.809 35.9365 108.44 36.9785 108.739C38.6774 109.229 41.8887 109.973 42.036 110.002C42.4043 110.081 78.7739 118.034 118.08 118.034C119.671 118.034 121.267 118.034 122.828 117.995H123.177C124.738 118.019 126.339 118.034 127.93 118.034C167.275 118.034 203.6 110.081 203.964 110.002C204.101 109.973 207.401 109.248 209.046 108.734C210.175 108.405 211.145 107.677 211.776 106.687C212.327 105.859 212.618 104.885 212.611 103.891L212.66 80.5357V15.1383C212.668 14.1464 212.384 13.1739 211.845 12.3404C211.306 11.5068 210.535 10.8487 209.625 10.4468L209.389 10.3488L209.301 10.3096L209.1 10.246C207.416 9.75625 204.155 9.00699 204.018 8.97761C203.645 8.89435 167.29 0.995117 128.043 0.995117H128.028Z" fill="white"/>
<path d="M244.787 59.5071C244.787 78.2146 189.793 92.1226 123.014 92.1226C56.3833 92.1226 1.24219 77.9696 1.24219 59.5071C1.24219 40.7508 55.6468 26.8916 123.014 26.8916C190.382 26.8916 244.787 40.7018 244.787 59.5071Z" fill="#E30613"/>
<path d="M123.015 93.3472C90.426 93.3472 59.816 89.9973 36.8263 83.9201C13.0856 77.6466 0 68.9738 0 59.5073C0 49.7667 12.6339 41.2847 36.5366 34.982C59.305 28.973 90.0132 25.6772 123 25.6772C155.986 25.6772 186.734 28.978 209.478 34.982C233.371 41.2798 246 49.7667 246 59.5267C246 71.7699 226.01 79.6056 209.237 84.0132C186.395 90.0317 155.77 93.3472 123.015 93.3472ZM123.015 28.116C90.2343 28.116 59.7472 31.3923 37.1798 37.3474C15.1283 43.1652 2.47964 51.2459 2.47964 59.5073C2.47964 67.6417 15.2461 75.6681 37.4646 81.5447C60.2577 87.5682 90.6416 90.8887 123.024 90.8887C155.564 90.8887 185.968 87.6026 208.638 81.6378C230.837 75.7956 243.569 67.7249 243.569 59.4973C243.569 51.094 231.245 43.2191 208.874 37.3179C186.356 31.3874 155.844 28.116 123.015 28.116Z" fill="white"/>
<path d="M38.1766 69.8307C37.9219 69.5647 37.7236 69.25 37.5937 68.9059C37.4638 68.5618 37.4048 68.1948 37.4204 67.8273V51.6665C37.4048 51.299 37.4638 50.9325 37.5937 50.5883C37.7236 50.2441 37.9219 49.9296 38.1766 49.6637C38.4332 49.4072 38.74 49.2061 39.0779 49.0729C39.4158 48.9398 39.7775 48.8775 40.1407 48.8899H50.9429C51.6605 48.855 52.3681 49.0677 52.9463 49.4923C53.1903 49.6777 53.3865 49.9182 53.519 50.1941C53.6509 50.47 53.7157 50.7733 53.7077 51.0789C53.7177 51.3921 53.6539 51.7029 53.522 51.9872C53.3895 52.271 53.1928 52.5205 52.9463 52.7147C52.3716 53.148 51.6625 53.3666 50.9429 53.3317H42.8805V56.7598H47.1916C49.5584 56.7598 51.3896 57.3554 52.6864 58.547C53.9826 59.7387 54.6369 61.4139 54.6504 63.5716C54.6504 65.7527 53.9577 67.4732 52.5733 68.7336C51.1884 69.9935 49.321 70.6254 46.9707 70.6289H40.1505C39.7839 70.6394 39.4191 70.5741 39.0793 70.4367C38.7395 70.2992 38.432 70.0931 38.1766 69.8307ZM48.5567 65.5894C48.8437 65.3339 49.0692 65.0172 49.2163 64.6627C49.3634 64.3086 49.4283 63.9257 49.4061 63.5422C49.4405 63.1822 49.393 62.8192 49.2672 62.48C49.1414 62.1409 48.9405 61.8347 48.6794 61.5837C48.0013 61.1265 47.1873 60.9139 46.3717 60.9811H42.8805V66.3145H46.19C47.0409 66.3667 47.882 66.1093 48.5567 65.5894Z" fill="white"/>
<path d="M59.4817 69.9232C59.2452 69.6578 59.0644 69.3475 58.9494 69.0114C58.8349 68.6748 58.7885 68.3192 58.8139 67.9647V51.4852C58.7885 51.1311 58.8344 50.775 58.9489 50.4385C59.0639 50.102 59.2452 49.7919 59.4817 49.5265C59.7382 49.2895 60.04 49.1069 60.3691 48.9899C60.6983 48.8729 61.0479 48.8238 61.3969 48.8457H71.8948C72.5949 48.7966 73.2901 48.9942 73.8588 49.404C74.0858 49.6019 74.2641 49.8493 74.3801 50.127C74.4957 50.4047 74.546 50.7053 74.5266 51.0056C74.5266 52.4846 73.6461 53.2241 71.8848 53.2241H64.2498V57.3573H71.2907C73.0486 57.3573 73.9325 58.0868 73.9325 59.5464C73.9519 59.8462 73.9016 60.1469 73.7861 60.4248C73.67 60.7022 73.4918 60.9497 73.2647 61.1474C72.6945 61.5542 71.9998 61.7499 71.3007 61.7011H64.2498V66.2307H71.8948C73.6561 66.2307 74.5365 66.9702 74.5365 68.4492C74.5559 68.7495 74.5056 69.0502 74.3901 69.3276C74.2741 69.6055 74.0958 69.853 73.8687 70.0507C73.299 70.459 72.6039 70.6547 71.9047 70.6039H61.3969C61.0479 70.6263 60.6983 70.5775 60.3691 70.4605C60.04 70.3435 59.7382 70.1607 59.4817 69.9232Z" fill="white"/>
<path d="M84.509 70.0021C84.2461 69.7372 84.0409 69.4205 83.9075 69.0724C83.774 68.7238 83.7148 68.3519 83.7332 67.9794V53.4594H79.4516C78.75 53.5097 78.0533 53.3085 77.4876 52.8912C77.257 52.6661 77.0788 52.3932 76.9662 52.092C76.8532 51.7907 76.8084 51.4685 76.8342 51.1478C76.8074 50.8301 76.8522 50.5102 76.9652 50.212C77.0778 49.9137 77.2565 49.6444 77.4876 49.4239C78.0558 49.0129 78.7514 48.8152 79.4516 48.8656H93.6568C94.357 48.8165 95.0522 49.0141 95.6209 49.4239C95.8519 49.6444 96.0302 49.9137 96.1432 50.212C96.2563 50.5102 96.3011 50.8301 96.2737 51.1478C96.3001 51.4685 96.2553 51.7907 96.1422 52.092C96.0297 52.3932 95.8514 52.6661 95.6209 52.8912C95.0552 53.3085 94.3585 53.5097 93.6568 53.4594H89.3802V67.9794C89.3977 68.3519 89.3374 68.7238 89.204 69.0714C89.0705 69.4195 88.8663 69.7367 88.6044 70.0021C88.0332 70.4882 87.3072 70.7556 86.5567 70.7556C85.8058 70.7556 85.0797 70.4882 84.509 70.0021Z" fill="white"/>
<path d="M117.756 68.1902C117.733 68.8744 117.452 69.5248 116.968 70.0108C116.484 70.4968 115.834 70.7822 115.149 70.8105C114.789 70.8071 114.436 70.7224 114.114 70.5631C113.793 70.4032 113.512 70.1731 113.293 69.8898L108.073 63.5232L102.765 69.8898C102.551 70.1702 102.276 70.3992 101.96 70.5586C101.644 70.7179 101.297 70.8041 100.943 70.8105C100.604 70.8071 100.268 70.7344 99.9573 70.5974C99.6466 70.46 99.3672 70.2608 99.1366 70.0123C98.6536 69.5641 98.3653 68.9451 98.3344 68.2878C98.303 67.6305 98.5311 66.9876 98.9693 66.4961L104.798 59.64L99.1217 52.9502C98.7074 52.4925 98.4703 51.9019 98.4539 51.2849C98.4524 50.9398 98.5236 50.5983 98.6621 50.282C98.801 49.9657 99.0042 49.6819 99.2591 49.4486C99.4962 49.2005 99.781 49.0028 100.097 48.8673C100.412 48.7318 100.752 48.6613 101.096 48.6602C101.454 48.6662 101.806 48.7525 102.127 48.9127C102.447 49.0729 102.728 49.3029 102.947 49.5857L108.073 55.7513L113.194 49.6053C113.397 49.3208 113.666 49.0886 113.976 48.9276C114.287 48.7667 114.632 48.6818 114.982 48.6797C115.325 48.6809 115.665 48.7513 115.981 48.8868C116.296 49.0223 116.581 49.2201 116.818 49.4682C117.073 49.7015 117.276 49.9854 117.415 50.3016C117.554 50.6178 117.624 50.9593 117.623 51.3049C117.617 51.9179 117.39 52.5085 116.985 52.9696L111.314 59.6594L117.108 66.5155C117.522 66.9756 117.752 67.5717 117.756 68.1902Z" fill="white"/>
<path d="M125.603 69.5077C124.007 68.6068 122.713 67.2558 121.886 65.624C121.025 63.774 120.58 61.7597 120.58 59.7205C120.58 57.6813 121.025 55.6664 121.886 53.817C122.71 52.1861 124.004 50.8391 125.603 49.9479C127.366 49.0561 129.316 48.5913 131.294 48.5913C133.271 48.5913 135.221 49.0561 136.984 49.9479C138.581 50.8366 139.871 52.1851 140.687 53.817C141.542 55.6679 141.986 57.6818 141.986 59.7205C141.986 61.7587 141.542 63.773 140.687 65.624C139.857 67.2548 138.564 68.6053 136.969 69.5077C135.214 70.4085 133.268 70.8791 131.294 70.8791C129.319 70.8791 127.373 70.4085 125.617 69.5077H125.603ZM135.089 64.7913C135.999 63.6291 136.454 61.9379 136.454 59.718C136.454 57.498 135.994 55.8133 135.074 54.664C134.603 54.1232 134.021 53.6895 133.368 53.3922C132.714 53.0954 132.004 52.9415 131.286 52.9415C130.568 52.9415 129.858 53.0954 129.205 53.3922C128.551 53.6895 127.969 54.1232 127.498 54.664C126.588 55.8069 126.133 57.496 126.133 59.7324C126.133 61.9688 126.588 63.6649 127.498 64.8207C127.969 65.364 128.552 65.7997 129.207 66.0985C129.862 66.3973 130.573 66.5517 131.294 66.5517C132.014 66.5517 132.725 66.3973 133.38 66.0985C134.035 65.7997 134.618 65.364 135.089 64.8207V64.7913Z" fill="white"/>
<path d="M164.01 61.275C164.693 62.2655 165.037 63.4486 164.992 64.6493C165.016 65.7622 164.693 66.8558 164.069 67.7785C163.407 68.7107 162.49 69.4333 161.427 69.8601C160.152 70.379 158.783 70.6304 157.406 70.5996H149.353C149.004 70.6225 148.655 70.5742 148.326 70.4581C147.997 70.3416 147.695 70.1599 147.438 69.9238C147.201 69.6579 147.02 69.3477 146.905 69.0115C146.791 68.6749 146.745 68.3193 146.77 67.9648V51.4853C146.745 51.1312 146.79 50.7751 146.905 50.4386C147.02 50.1022 147.201 49.7921 147.438 49.5266C147.694 49.2896 147.996 49.107 148.325 48.99C148.654 48.873 149.004 48.824 149.353 48.8459H157.121C159.37 48.8459 161.156 49.3552 162.478 50.3738C163.118 50.8484 163.633 51.4703 163.98 52.1869C164.326 52.903 164.493 53.6928 164.467 54.4876C164.483 55.5338 164.177 56.5596 163.588 57.4256C162.988 58.2911 162.128 58.9445 161.133 59.2915C162.284 59.6182 163.296 60.3154 164.01 61.275ZM152.225 57.4062H156.203C157.001 57.4685 157.802 57.2986 158.506 56.9167C158.753 56.7394 158.95 56.5019 159.078 56.2265C159.206 55.9511 159.261 55.6474 159.237 55.3446C159.263 55.0284 159.209 54.7107 159.081 54.4203C158.954 54.1295 158.756 53.8751 158.506 53.6794C157.809 53.2775 157.006 53.0947 156.203 53.1555H152.225V57.4062ZM159.129 65.7757C159.586 65.2981 159.842 64.6632 159.842 64.0029C159.842 63.3426 159.586 62.7077 159.129 62.2301C158.638 61.8725 157.857 61.6913 156.748 61.6913H152.225V66.3145H156.748C157.838 66.3145 158.633 66.1382 159.109 65.7757H159.129Z" fill="white"/>
<path d="M170.02 69.9237C169.782 69.6583 169.6 69.3486 169.486 69.0119C169.371 68.6753 169.326 68.3192 169.352 67.9647V51.4852C169.325 51.1306 169.37 50.7746 169.485 50.438C169.6 50.1014 169.782 49.7913 170.02 49.5265C170.276 49.289 170.578 49.1062 170.907 48.9891C171.236 48.8721 171.586 48.8233 171.934 48.8458H182.428C183.128 48.7983 183.822 48.9957 184.392 49.4041C184.619 49.6019 184.797 49.8493 184.913 50.127C185.029 50.4048 185.079 50.7054 185.06 51.0056C185.06 52.4846 184.179 53.2241 182.418 53.2241H174.787V57.3573H181.829C183.587 57.3573 184.466 58.0868 184.466 59.5464C184.485 59.8462 184.435 60.147 184.319 60.4248C184.203 60.7022 184.025 60.9497 183.798 61.1474C183.228 61.5562 182.533 61.7519 181.834 61.7011H174.787V66.2307H182.428C184.192 66.2307 185.073 66.9702 185.07 68.4492C185.089 68.7495 185.039 69.0503 184.923 69.3276C184.807 69.6055 184.629 69.853 184.401 70.0507C183.831 70.4575 183.137 70.6532 182.437 70.6039H171.934C171.586 70.6269 171.236 70.5781 170.907 70.461C170.578 70.344 170.276 70.1607 170.02 69.9237Z" fill="white"/>
<path d="M207.882 49.4679C208.136 49.7372 208.333 50.0546 208.461 50.4012C208.589 50.7478 208.646 51.1164 208.628 51.4854V67.9793C208.645 68.3513 208.589 68.7233 208.46 69.0729C208.332 69.4224 208.135 69.7431 207.882 70.0165C207.625 70.273 207.319 70.4737 206.981 70.6061C206.642 70.7386 206.281 70.7993 205.918 70.7854C205.552 70.8033 205.187 70.7456 204.845 70.6156C204.503 70.4861 204.191 70.2869 203.929 70.0315C203.675 69.7566 203.477 69.4329 203.35 69.0803C203.222 68.7278 203.168 68.3538 203.188 67.9793V61.8238H194.448V67.9893C194.465 68.3612 194.408 68.7327 194.28 69.0823C194.151 69.4324 193.955 69.7531 193.702 70.0265C193.445 70.2829 193.138 70.4841 192.8 70.6161C192.462 70.7485 192.1 70.8098 191.738 70.7954C191.372 70.8133 191.007 70.7555 190.664 70.6255C190.322 70.4956 190.01 70.2969 189.749 70.0414C189.493 69.7665 189.295 69.4433 189.167 69.0908C189.039 68.7382 188.983 68.3637 189.003 67.9893V51.4854C188.985 51.1164 189.042 50.7478 189.17 50.4012C189.298 50.0546 189.495 49.7372 189.749 49.4679C190.295 48.9819 191.003 48.7134 191.735 48.7134C192.468 48.7134 193.174 48.9819 193.721 49.4679C193.975 49.7372 194.172 50.0546 194.3 50.4012C194.428 50.7478 194.485 51.1164 194.467 51.4854V57.3132H203.207V51.4854C203.189 51.1169 203.245 50.7482 203.373 50.4016C203.5 50.055 203.696 49.7375 203.949 49.4679C204.497 48.9825 205.205 48.7145 205.938 48.7145C206.671 48.7145 207.378 48.9825 207.926 49.4679H207.882Z" fill="white"/>
<path d="M55.6469 101.364C55.0957 100.923 54.6858 100.33 54.4687 99.6596C54.2391 98.9107 54.1988 98.1169 54.3507 97.348C54.4637 96.5777 54.7675 95.8471 55.2346 95.2227C55.6629 94.6625 56.2465 94.2402 56.9138 94.0081C57.723 93.7586 58.5845 93.7268 59.4096 93.917C60.2353 94.1072 60.9957 94.5121 61.6127 95.0907C61.7187 95.1858 61.7994 95.3053 61.8487 95.4383C61.8841 95.5797 61.8841 95.7276 61.8487 95.8695C61.8138 96.0897 61.7048 96.2918 61.5395 96.4422C61.4692 96.5099 61.3846 96.5597 61.2915 96.5891C61.1983 96.618 61.1002 96.6245 61.0041 96.6085C60.8961 96.5941 60.7925 96.5572 60.6994 96.501C60.5923 96.4377 60.4922 96.364 60.4001 96.2809C60.1885 96.0852 59.9504 95.9203 59.693 95.7909C59.4654 95.6778 59.2219 95.5986 58.9714 95.5558C58.6881 95.4856 58.3923 95.4811 58.1069 95.5429C57.8216 95.6051 57.5547 95.7316 57.3261 95.9134C56.8495 96.3989 56.5562 97.0338 56.4965 97.7106C56.3336 98.3649 56.3959 99.0546 56.6732 99.6696C56.8281 99.9171 57.0378 100.126 57.2863 100.28C57.5352 100.433 57.8156 100.528 58.1069 100.556C58.3365 100.593 58.57 100.593 58.7991 100.556C59.0252 100.517 59.325 100.453 59.693 100.355L60.0809 100.243C60.1765 100.225 60.2746 100.225 60.3707 100.243C60.4668 100.259 60.558 100.297 60.6366 100.355C60.7148 100.413 60.7786 100.488 60.8224 100.575C60.9274 100.772 60.9618 100.998 60.9205 101.217C60.8986 101.36 60.8433 101.496 60.7586 101.614C60.67 101.726 60.5555 101.815 60.4245 101.873C59.573 102.263 58.6203 102.38 57.6996 102.206C56.9551 102.102 56.2495 101.812 55.6469 101.364Z" fill="white"/>
<path d="M62.163 102.608C62.0873 102.496 62.036 102.37 62.0116 102.238C61.9867 102.106 61.9902 101.97 62.0206 101.839L62.9633 95.6142C62.9677 95.4783 63.0036 95.3448 63.0673 95.2243C63.1311 95.1038 63.2217 94.9992 63.3318 94.9191C63.4418 94.8384 63.5688 94.7836 63.7032 94.7592C63.8377 94.7343 63.9756 94.7403 64.1071 94.7771L68.1387 95.3842C68.4111 95.4086 68.6671 95.5241 68.8653 95.7123C68.94 95.7995 68.9937 95.9026 69.0216 96.0141C69.05 96.1251 69.0515 96.2417 69.0271 96.3537C68.9439 96.9119 68.5361 97.1375 67.8882 97.0345L64.9422 96.5888L64.7017 98.1464L67.4072 98.5578C68.0795 98.6603 68.3892 98.9885 68.2956 99.5368C68.2846 99.6513 68.2478 99.7614 68.187 99.859C68.1268 99.9566 68.0446 100.039 67.947 100.1C67.703 100.224 67.4236 100.258 67.1567 100.198L64.4512 99.7868L64.1957 101.481L67.1418 101.927C67.8145 102.03 68.1238 102.363 68.0257 102.906C68.0157 103.022 67.9789 103.133 67.9186 103.231C67.8579 103.33 67.7752 103.413 67.6771 103.474C67.4336 103.594 67.1562 103.627 66.8913 103.567L62.8602 102.96C62.7257 102.952 62.5948 102.917 62.4747 102.856C62.3547 102.796 62.2487 102.711 62.163 102.608Z" fill="white"/>
<path d="M71.3351 103.974C71.2489 103.861 71.1872 103.731 71.1533 103.593C71.1194 103.455 71.1145 103.311 71.1384 103.171L71.8704 97.681L70.2206 97.4659C69.9442 97.452 69.6828 97.3389 69.4841 97.1472C69.4074 97.0511 69.3536 96.9396 69.3252 96.82C69.2973 96.701 69.2963 96.5765 69.3217 96.457C69.3282 96.335 69.3616 96.2165 69.4203 96.1094C69.4791 96.0029 69.5613 95.9107 69.6609 95.84C69.9024 95.7091 70.1827 95.6692 70.4511 95.727L75.9209 96.452C76.1948 96.4675 76.4547 96.5765 76.6574 96.7603C76.7341 96.8554 76.7884 96.9664 76.8163 97.085C76.8447 97.2035 76.8456 97.327 76.8198 97.446C76.8128 97.569 76.7789 97.689 76.7202 97.7971C76.6619 97.9056 76.5802 97.9997 76.4806 98.073C76.2391 98.2029 75.9588 98.2428 75.6904 98.1855L74.0406 97.9699L73.314 103.45C73.3011 103.592 73.2592 103.729 73.1905 103.854C73.1223 103.978 73.0287 104.088 72.9161 104.175C72.7966 104.259 72.6622 104.318 72.5197 104.349C72.3768 104.38 72.2299 104.382 72.0865 104.356C71.7957 104.332 71.5258 104.194 71.3351 103.974Z" fill="white"/>
<path d="M76.9668 104.664C76.8886 104.555 76.8333 104.431 76.804 104.3C76.7741 104.168 76.7711 104.033 76.795 103.901L77.4971 97.6514C77.5195 97.3656 77.6535 97.1002 77.8706 96.912C77.9832 96.8258 78.1121 96.7631 78.2496 96.7277C78.387 96.6923 78.5304 96.6849 78.6709 96.7063C78.8148 96.7098 78.9562 96.7446 79.0857 96.8089C79.2147 96.8731 79.3277 96.9647 79.4173 97.0773C79.5065 97.1898 79.5702 97.3208 79.6036 97.4607C79.6364 97.6007 79.6384 97.7461 79.6086 97.8865L79.378 99.9337L81.1553 100.134C81.9266 100.167 82.6582 100.485 83.2079 101.026C83.4365 101.293 83.6033 101.606 83.6959 101.945C83.7886 102.284 83.8045 102.639 83.7432 102.985C83.7218 103.362 83.6133 103.73 83.426 104.059C83.2388 104.388 82.9774 104.668 82.6626 104.88C81.954 105.29 81.1244 105.443 80.3157 105.311L77.6789 105.017C77.543 105.008 77.41 104.972 77.288 104.911C77.1655 104.851 77.0564 104.767 76.9668 104.664ZM81.342 103.519C81.4536 103.438 81.5457 103.334 81.6109 103.214C81.6766 103.094 81.714 102.96 81.72 102.823C81.7483 102.685 81.7454 102.542 81.7105 102.406C81.6756 102.269 81.6099 102.142 81.5188 102.035C81.2753 101.836 80.9735 101.722 80.6593 101.711L79.1863 101.545L78.9657 103.504L80.4387 103.665C80.7474 103.727 81.0686 103.674 81.342 103.519Z" fill="white"/>
<path d="M90.3131 105.953C90.1343 105.841 89.9874 105.686 89.8858 105.502C89.7997 105.354 89.7589 105.184 89.7678 105.012C89.7728 104.909 89.7987 104.808 89.8435 104.715C89.8878 104.621 89.9511 104.538 90.0283 104.469C90.1059 104.399 90.1966 104.347 90.2957 104.315C90.3948 104.283 90.4993 104.272 90.6029 104.283C90.7917 104.306 90.9729 104.372 91.1328 104.474C91.3992 104.634 91.6845 104.761 91.9823 104.851C92.2328 104.919 92.4892 104.964 92.7487 104.983C93.1665 105.034 93.5908 104.993 93.9906 104.861C94.1261 104.82 94.2451 104.739 94.3333 104.629C94.4209 104.518 94.4727 104.384 94.4817 104.244C94.5041 104.118 94.4981 103.988 94.4642 103.864C94.4299 103.741 94.3691 103.626 94.2854 103.528C94.0126 103.33 93.6804 103.228 93.3428 103.24L92.5764 103.181C92.308 103.176 92.0515 103.069 91.8598 102.882C91.7831 102.803 91.7239 102.71 91.6855 102.607C91.6477 102.504 91.6317 102.394 91.6387 102.285C91.6477 102.176 91.68 102.071 91.7333 101.977C91.7866 101.882 91.8598 101.8 91.9479 101.736C92.1661 101.582 92.4345 101.516 92.6994 101.55L93.2297 101.589C93.5713 101.648 93.9224 101.607 94.2411 101.472C94.3437 101.407 94.4274 101.317 94.4851 101.211C94.5429 101.105 94.5723 100.985 94.5703 100.864C94.5867 100.741 94.5683 100.615 94.517 100.5C94.4657 100.386 94.384 100.289 94.2805 100.218C94.0111 100.053 93.7028 99.962 93.3866 99.9535C93.1486 99.9286 92.908 99.9286 92.67 99.9535C92.4464 99.9879 92.2253 100.034 92.0072 100.091L91.693 100.169C91.5351 100.224 91.3683 100.248 91.202 100.238C91.0939 100.234 90.9884 100.208 90.8912 100.162C90.7941 100.115 90.7075 100.05 90.6373 99.9684C90.5696 99.8938 90.5183 99.8061 90.4864 99.711C90.454 99.6159 90.4421 99.5148 90.4505 99.4152C90.4605 99.2354 90.5277 99.0641 90.6418 98.9252C90.7742 98.7668 90.9425 98.6428 91.1328 98.5627C92.0256 98.2579 92.9738 98.1508 93.912 98.2494C94.7117 98.2664 95.4846 98.5393 96.117 99.0283C96.3645 99.2349 96.5577 99.4994 96.6782 99.7986C96.7992 100.097 96.844 100.422 96.8092 100.742C96.7873 101.148 96.6359 101.536 96.3769 101.849C96.106 102.155 95.745 102.369 95.3461 102.461C95.7704 102.602 96.1409 102.871 96.4063 103.23C96.6364 103.591 96.7355 104.019 96.6862 104.444C96.6598 104.919 96.4671 105.37 96.1414 105.718C95.7799 106.096 95.3242 106.372 94.8208 106.516C94.2028 106.697 93.5564 106.759 92.9155 106.697C92.0002 106.663 91.1074 106.407 90.3131 105.953Z" fill="white"/>
<path d="M99.5097 106.633C98.9126 106.26 98.4385 105.72 98.1447 105.081C97.8474 104.361 97.715 103.584 97.7568 102.806C97.7981 102.029 98.0133 101.27 98.3853 100.585C98.7393 99.9774 99.2677 99.4898 99.9026 99.1846C100.602 98.8664 101.37 98.7294 102.137 98.7882C102.906 98.8086 103.656 99.0257 104.317 99.4196C104.914 99.7886 105.386 100.327 105.672 100.967C105.965 101.688 106.096 102.465 106.055 103.242C106.013 104.019 105.8 104.777 105.432 105.463C105.075 106.07 104.545 106.558 103.909 106.863C103.206 107.173 102.44 107.313 101.672 107.273C100.905 107.233 100.157 107.014 99.4903 106.633H99.5097ZM103.281 105.032C103.703 104.487 103.926 103.815 103.914 103.127C104 102.444 103.848 101.752 103.482 101.168C103.31 100.949 103.092 100.77 102.845 100.641C102.597 100.512 102.324 100.438 102.046 100.423C101.767 100.407 101.488 100.451 101.228 100.552C100.967 100.653 100.732 100.808 100.536 101.007C100.113 101.549 99.8891 102.22 99.9026 102.906C99.8214 103.589 99.9718 104.278 100.33 104.865C100.503 105.084 100.722 105.262 100.97 105.389C101.218 105.516 101.491 105.59 101.769 105.603C102.048 105.617 102.327 105.572 102.587 105.47C102.846 105.368 103.081 105.212 103.276 105.012L103.281 105.032Z" fill="white"/>
<path d="M109.001 107.074C108.395 106.714 107.908 106.185 107.602 105.551C107.271 104.845 107.119 104.068 107.16 103.288C107.166 102.507 107.363 101.739 107.734 101.05C108.07 100.437 108.584 99.939 109.207 99.6208C109.903 99.2986 110.665 99.1422 111.432 99.1641C112.199 99.1865 112.951 99.3862 113.626 99.7478C114.233 100.101 114.719 100.629 115.021 101.261C115.348 101.971 115.498 102.749 115.458 103.528C115.455 104.309 115.258 105.076 114.884 105.762C114.546 106.376 114.033 106.877 113.411 107.201C112.715 107.526 111.953 107.684 111.186 107.662C110.418 107.64 109.666 107.438 108.991 107.074H109.001ZM112.738 105.385C113.142 104.828 113.348 104.152 113.322 103.465C113.392 102.775 113.218 102.082 112.831 101.506C112.653 101.292 112.432 101.118 112.181 100.996C111.93 100.874 111.657 100.806 111.378 100.798C111.099 100.79 110.822 100.841 110.565 100.948C110.307 101.054 110.075 101.215 109.885 101.418C109.519 101.993 109.315 102.656 109.295 103.337C109.275 104.018 109.44 104.691 109.772 105.287C109.95 105.5 110.172 105.674 110.423 105.796C110.674 105.917 110.948 105.984 111.226 105.992C111.505 106 111.782 105.949 112.039 105.841C112.297 105.734 112.528 105.573 112.718 105.37L112.738 105.385Z" fill="white"/>
<path d="M125.023 99.7331C125.21 99.9422 125.307 100.217 125.293 100.497L125.19 106.878C125.194 107.007 125.172 107.136 125.125 107.256C125.078 107.377 125.006 107.487 124.915 107.578C124.823 107.664 124.715 107.731 124.597 107.773C124.479 107.817 124.353 107.835 124.228 107.828C124.1 107.832 123.973 107.809 123.856 107.76C123.738 107.712 123.632 107.639 123.545 107.546C123.457 107.454 123.391 107.344 123.349 107.223C123.308 107.103 123.293 106.975 123.304 106.849L123.359 103.391L121.974 105.84C121.875 106.054 121.727 106.242 121.542 106.388C121.387 106.496 121.2 106.549 121.011 106.54C120.822 106.541 120.636 106.483 120.481 106.374C120.303 106.226 120.16 106.04 120.064 105.83L118.772 103.411L118.719 106.8C118.722 106.927 118.699 107.054 118.652 107.173C118.605 107.292 118.534 107.399 118.443 107.49C118.352 107.578 118.243 107.646 118.124 107.69C118.005 107.734 117.878 107.752 117.751 107.745C117.626 107.747 117.502 107.725 117.385 107.678C117.269 107.632 117.163 107.563 117.073 107.476C116.986 107.38 116.918 107.268 116.875 107.146C116.832 107.024 116.814 106.894 116.823 106.765L116.926 100.374C116.922 100.235 116.947 100.095 116.998 99.9646C117.049 99.8341 117.127 99.7151 117.226 99.6155C117.323 99.5194 117.439 99.4442 117.566 99.3954C117.694 99.3466 117.831 99.3247 117.967 99.3312C118.174 99.3347 118.375 99.4014 118.542 99.5224C118.725 99.6633 118.872 99.8466 118.969 100.056L121.071 104.155L123.295 100.125C123.375 99.9278 123.51 99.7579 123.684 99.6354C123.858 99.5129 124.064 99.4432 124.277 99.4343C124.415 99.4288 124.553 99.4522 124.682 99.504C124.811 99.5553 124.927 99.6335 125.023 99.7331Z" fill="white"/>
<path d="M135.084 106.667C135.087 106.793 135.062 106.918 135.01 107.032C134.958 107.147 134.881 107.248 134.784 107.329C134.592 107.508 134.34 107.61 134.077 107.613C133.904 107.619 133.733 107.573 133.586 107.481C133.426 107.381 133.299 107.237 133.223 107.064L132.668 105.889L128.853 105.967L128.332 107.162C128.26 107.336 128.139 107.486 127.984 107.593C127.837 107.688 127.667 107.74 127.493 107.745C127.228 107.749 126.97 107.658 126.766 107.49C126.664 107.415 126.579 107.317 126.521 107.204C126.462 107.091 126.43 106.966 126.427 106.839C126.425 106.686 126.458 106.535 126.525 106.398L129.506 99.9681C129.602 99.7635 129.758 99.5932 129.953 99.4781C130.153 99.3586 130.382 99.2944 130.616 99.2924C130.846 99.2869 131.075 99.3407 131.278 99.4487C131.483 99.5583 131.646 99.7296 131.745 99.9387L134.986 106.246C135.048 106.379 135.081 106.522 135.084 106.667ZM129.545 104.331L131.902 104.283L130.669 101.687L129.545 104.331Z" fill="white"/>
<path d="M136.424 107.285C136.321 107.184 136.239 107.064 136.183 106.931C136.127 106.798 136.099 106.655 136.1 106.511L135.85 100.228C135.839 100.096 135.856 99.9634 135.898 99.8379C135.94 99.7124 136.007 99.5969 136.095 99.4983C136.188 99.4022 136.299 99.325 136.423 99.2722C136.546 99.2189 136.678 99.1911 136.812 99.1896L140.883 99.0282C141.137 98.9983 141.392 99.0686 141.595 99.2239C141.677 99.3016 141.741 99.3947 141.785 99.4988C141.829 99.6024 141.851 99.7139 141.85 99.8265C141.86 99.941 141.847 100.056 141.812 100.166C141.777 100.275 141.719 100.376 141.644 100.463C141.456 100.636 141.207 100.729 140.951 100.722L138.005 100.84L138.231 106.428C138.243 106.57 138.227 106.712 138.183 106.848C138.139 106.983 138.069 107.108 137.976 107.216C137.877 107.319 137.759 107.4 137.629 107.455C137.498 107.511 137.357 107.54 137.215 107.54C137.073 107.554 136.929 107.539 136.793 107.495C136.656 107.451 136.531 107.38 136.424 107.285Z" fill="white"/>
<path d="M150.148 105.899C150.157 106.025 150.137 106.151 150.089 106.269C150.042 106.386 149.968 106.49 149.873 106.574C149.69 106.762 149.443 106.873 149.181 106.888C149.01 106.895 148.841 106.856 148.69 106.775C148.53 106.679 148.4 106.54 148.317 106.374L147.718 105.218L143.903 105.438L143.412 106.653C143.348 106.831 143.231 106.987 143.077 107.099C142.934 107.2 142.763 107.258 142.586 107.265C142.321 107.281 142.058 107.201 141.845 107.04C141.74 106.967 141.653 106.872 141.591 106.761C141.529 106.649 141.493 106.526 141.487 106.398C141.48 106.247 141.507 106.097 141.565 105.957L144.305 99.4195C144.39 99.2093 144.538 99.03 144.728 98.9055C144.925 98.782 145.152 98.7113 145.386 98.6999C145.616 98.6839 145.846 98.7298 146.053 98.8318C146.262 98.9294 146.434 99.0908 146.544 99.2925L150.021 105.492C150.092 105.617 150.136 105.756 150.148 105.899ZM144.526 103.778L146.878 103.641L145.552 101.09L144.526 103.778Z" fill="white"/>
<path d="M151.317 106.261C151.126 106.173 150.958 106.042 150.826 105.879C150.716 105.738 150.65 105.567 150.634 105.389C150.616 105.181 150.68 104.974 150.811 104.811C150.877 104.731 150.959 104.665 151.052 104.618C151.145 104.571 151.247 104.546 151.351 104.542C151.541 104.534 151.729 104.571 151.901 104.65C152.19 104.766 152.492 104.848 152.8 104.895C153.058 104.919 153.318 104.919 153.576 104.895C153.998 104.878 154.411 104.771 154.788 104.581C154.917 104.521 155.025 104.423 155.097 104.301C155.169 104.178 155.202 104.037 155.191 103.896C155.192 103.767 155.165 103.639 155.112 103.521C155.058 103.404 154.98 103.299 154.881 103.215C154.578 103.064 154.233 103.016 153.899 103.078L153.139 103.137C152.871 103.173 152.6 103.104 152.383 102.946C152.294 102.882 152.22 102.8 152.166 102.704C152.113 102.609 152.081 102.504 152.073 102.395C152.064 102.287 152.08 102.178 152.118 102.076C152.156 101.973 152.216 101.881 152.294 101.805C152.487 101.618 152.743 101.512 153.011 101.506L153.536 101.467C153.883 101.468 154.223 101.373 154.518 101.192C154.609 101.113 154.678 101.012 154.719 100.899C154.759 100.786 154.769 100.664 154.749 100.546C154.746 100.421 154.709 100.299 154.641 100.194C154.574 100.089 154.479 100.004 154.366 99.9487C154.073 99.8262 153.753 99.7824 153.438 99.8212C153.199 99.8376 152.962 99.8785 152.731 99.9437C152.544 100.002 152.333 100.081 152.098 100.174L151.798 100.306C151.647 100.388 151.479 100.436 151.307 100.448C151.2 100.461 151.091 100.452 150.988 100.421C150.885 100.389 150.79 100.337 150.708 100.267C150.556 100.146 150.456 99.9701 150.433 99.7769C150.427 99.6056 150.469 99.4358 150.556 99.2874C150.664 99.1076 150.816 98.9577 150.998 98.8517C151.833 98.4119 152.755 98.1629 153.698 98.1216C154.491 98.0131 155.297 98.1644 155.996 98.5529C156.272 98.7197 156.502 98.9517 156.667 99.2286C156.831 99.505 156.925 99.8182 156.939 100.139C156.984 100.544 156.894 100.952 156.684 101.3C156.463 101.645 156.138 101.912 155.756 102.059C156.196 102.137 156.602 102.347 156.92 102.662C157.206 102.982 157.371 103.393 157.386 103.822C157.431 104.294 157.309 104.767 157.042 105.159C156.743 105.588 156.333 105.926 155.854 106.139C155.275 106.42 154.646 106.587 154.003 106.628C153.091 106.723 152.169 106.597 151.317 106.261Z" fill="white"/>
<path d="M163.72 97.3825C163.973 97.2426 164.256 97.1639 164.545 97.1525C164.677 97.1231 164.814 97.1236 164.946 97.1545C165.078 97.1848 165.201 97.2451 165.306 97.3297C165.411 97.4144 165.496 97.522 165.554 97.644C165.611 97.7655 165.641 97.8989 165.64 98.0339L166.273 104.371C166.295 104.512 166.288 104.655 166.253 104.794C166.217 104.932 166.154 105.061 166.067 105.174C165.874 105.383 165.611 105.513 165.329 105.542C165.046 105.571 164.762 105.496 164.53 105.331C164.422 105.238 164.334 105.125 164.271 104.997C164.209 104.868 164.173 104.729 164.167 104.587L163.744 100.399L161.289 105.003C161.162 105.234 161.013 105.452 160.843 105.654C160.721 105.791 160.57 105.898 160.401 105.968C160.21 106.034 160.013 106.077 159.811 106.095C159.679 106.117 159.544 106.112 159.413 106.08C159.282 106.049 159.159 105.993 159.051 105.914C158.949 105.825 158.868 105.717 158.81 105.596C158.753 105.474 158.721 105.343 158.716 105.209L158.078 98.8715C158.058 98.7311 158.067 98.5881 158.103 98.4512C158.139 98.3137 158.202 98.1853 158.29 98.0732C158.381 97.9637 158.493 97.874 158.621 97.8098C158.749 97.7456 158.888 97.7087 159.031 97.7012C159.171 97.6813 159.313 97.6898 159.45 97.7256C159.587 97.762 159.715 97.8252 159.826 97.9114C159.935 98.0045 160.024 98.1195 160.086 98.2485C160.149 98.3775 160.184 98.5179 160.189 98.6608L160.612 102.838L163.214 97.9701C163.332 97.7361 163.506 97.5344 163.72 97.3825Z" fill="white"/>
<path d="M174.306 96.2854C174.415 96.3755 174.505 96.4871 174.569 96.6121C174.635 96.7376 174.673 96.8745 174.684 97.0154L175.46 103.255C175.486 103.396 175.483 103.542 175.451 103.682C175.418 103.823 175.358 103.955 175.272 104.071C175.186 104.187 175.078 104.285 174.953 104.358C174.829 104.431 174.691 104.477 174.547 104.495C174.404 104.512 174.259 104.501 174.12 104.461C173.981 104.42 173.852 104.352 173.741 104.26C173.63 104.168 173.538 104.055 173.472 103.926C173.407 103.798 173.368 103.658 173.359 103.514L173.069 101.183L169.701 101.599L169.99 103.935C170.014 104.075 170.009 104.218 169.976 104.356C169.943 104.494 169.883 104.624 169.799 104.738C169.711 104.85 169.6 104.942 169.474 105.008C169.348 105.075 169.209 105.115 169.067 105.125C168.926 105.154 168.781 105.153 168.641 105.12C168.501 105.088 168.37 105.024 168.257 104.936C168.144 104.847 168.052 104.735 167.988 104.607C167.923 104.479 167.888 104.338 167.884 104.195L167.108 97.9506C167.079 97.8117 167.081 97.6678 167.114 97.5299C167.146 97.3914 167.209 97.2619 167.297 97.1499C167.385 97.0384 167.496 96.9467 167.623 96.882C167.75 96.8172 167.888 96.7809 168.031 96.7754C168.17 96.746 168.315 96.7475 168.454 96.7794C168.593 96.8113 168.723 96.873 168.835 96.9602C168.948 97.0473 169.04 97.1579 169.106 97.2839C169.171 97.4103 169.208 97.5493 169.215 97.6912L169.489 99.8947L172.858 99.4784L172.583 97.2749C172.559 97.136 172.563 96.9935 172.596 96.8561C172.629 96.7192 172.69 96.5897 172.774 96.4766C172.863 96.3661 172.974 96.275 173.1 96.2092C173.226 96.1435 173.364 96.1046 173.506 96.0947C173.645 96.0708 173.788 96.0753 173.925 96.1081C174.063 96.141 174.193 96.2013 174.306 96.2854Z" fill="white"/>
<path d="M178.868 103.362C178.207 103.115 177.632 102.679 177.218 102.108C176.785 101.461 176.502 100.726 176.388 99.9563C176.274 99.1864 176.333 98.4011 176.56 97.6566C176.788 96.9928 177.208 96.4117 177.768 95.9869C178.397 95.5482 179.12 95.2618 179.879 95.1498C180.638 95.0373 181.414 95.1025 182.143 95.34C182.801 95.583 183.371 96.0183 183.778 96.5889C184.211 97.2363 184.495 97.9713 184.609 98.7412C184.722 99.5111 184.663 100.296 184.436 101.041C184.207 101.705 183.787 102.288 183.228 102.716C182.603 103.157 181.883 103.446 181.125 103.558C180.368 103.671 179.594 103.603 178.868 103.362ZM182.246 101.045C182.548 100.427 182.633 99.7247 182.487 99.0524C182.431 98.3687 182.144 97.7243 181.672 97.2259C181.466 97.0371 181.219 96.8992 180.95 96.8235C180.682 96.7478 180.399 96.7363 180.125 96.7896C179.846 96.8175 179.577 96.9096 179.34 97.059C179.103 97.2089 178.904 97.4116 178.76 97.6516C178.502 98.2826 178.42 98.9708 178.52 99.644C178.62 100.318 178.9 100.952 179.33 101.482C179.543 101.661 179.792 101.793 180.061 101.868C180.329 101.945 180.611 101.962 180.887 101.921C181.163 101.88 181.427 101.78 181.661 101.629C181.896 101.479 182.095 101.279 182.246 101.045Z" fill="white"/>
<path d="M192.617 97.9751C192.942 98.3018 193.154 98.7241 193.22 99.1802C193.301 99.5985 193.248 100.032 193.068 100.419C192.871 100.812 192.569 101.143 192.194 101.374C191.745 101.651 191.244 101.834 190.721 101.913L187.633 102.441C187.502 102.472 187.365 102.477 187.232 102.455C187.099 102.433 186.971 102.386 186.857 102.314C186.75 102.231 186.66 102.127 186.595 102.008C186.529 101.889 186.488 101.759 186.474 101.624L185.374 95.4285C185.337 95.298 185.33 95.1611 185.353 95.0271C185.376 94.8937 185.429 94.7667 185.508 94.6556C185.586 94.5451 185.689 94.453 185.807 94.3867C185.926 94.3205 186.058 94.2816 186.194 94.2732L189.165 93.7832C189.887 93.6258 190.641 93.7045 191.315 94.0088C191.589 94.1437 191.825 94.3434 192.004 94.5899C192.182 94.8364 192.298 95.1227 192.341 95.424C192.416 95.8179 192.364 96.2257 192.194 96.5893C192.017 96.9543 191.73 97.2556 191.374 97.4513C191.835 97.4851 192.272 97.6694 192.617 97.9751ZM187.829 97.2944L189.351 97.035C189.661 97.0041 189.957 96.889 190.206 96.7018C190.287 96.6186 190.346 96.5161 190.377 96.404C190.408 96.292 190.41 96.1735 190.382 96.0604C190.37 95.9399 190.329 95.8239 190.261 95.7233C190.193 95.6222 190.102 95.54 189.994 95.4828C189.7 95.3787 189.38 95.3633 189.076 95.4384L187.554 95.6979L187.829 97.2944ZM191.016 99.9879C191.097 99.8913 191.155 99.7758 191.182 99.6523C191.209 99.5288 191.206 99.4003 191.173 99.2778C191.163 99.1508 191.122 99.0283 191.055 98.9198C190.987 98.8117 190.895 98.7211 190.785 98.6559C190.481 98.5458 190.15 98.5304 189.838 98.612L188.109 98.9058L188.408 100.644L190.137 100.35C190.467 100.325 190.781 100.199 191.036 99.9879H191.016Z" fill="white"/>
</svg>
