<svg width="341" height="64" viewBox="0 0 341 64" fill="none" xmlns="http://www.w3.org/2000/svg">
<g clip-path="url(#clip0_21_285)">
<path d="M130.806 34.2097H111.7C111.582 36.1447 113.435 38.5541 115.786 39.597C118.999 41.0238 121.994 40.2012 125.124 36.988L128.769 39.6741C126.945 42.0798 124.638 43.6647 121.778 44.3123C113.833 46.1118 106.256 40.8412 106.51 31.4577C106.656 26.0685 109.68 21.6581 114.353 19.9753C120.55 17.7504 129.689 20.2878 130.787 30.3283C130.926 31.5857 130.806 32.8713 130.806 34.2097ZM125.869 29.773C125.52 26.3339 122.27 23.6704 118.546 23.7344C115.166 23.7908 111.773 26.7311 111.599 29.773H125.869Z" fill="#13120D"/>
<path d="M228.483 34.2176H209.238C209.734 36.9508 211.255 38.7353 213.692 39.6764C217.333 41.0675 220.311 39.9174 222.769 36.9828L226.457 39.6896C223.68 43.1626 220.153 44.8096 215.771 44.6477C212.853 44.5478 210.072 43.3813 207.954 41.3681C205.836 39.3549 204.523 36.6342 204.268 33.7188C203.928 29.9974 204.572 26.5395 207.002 23.5804C209.644 20.3616 213.108 19.0233 217.202 19.2943C221.109 19.5541 224.316 21.1597 226.491 24.5141C228.384 27.4487 228.782 30.7202 228.483 34.2176ZM209.251 29.7602H223.533C223.175 26.2722 219.793 23.5861 216.011 23.7367C212.704 23.8797 209.324 26.8802 209.251 29.7602Z" fill="#13120D"/>
<path d="M280.882 28.9938C281.07 25.7468 279.492 23.6818 276.595 23.3468C273.352 22.9703 271.525 24.3199 271.005 27.535H266.462C266.367 25.8269 266.844 24.1357 267.818 22.7312C269.069 20.9185 270.849 19.8945 272.952 19.4221C274.871 18.9899 276.861 19.0066 278.773 19.471C282.483 20.3595 284.883 23.0098 285.407 26.7933C285.514 27.5152 285.57 28.2435 285.58 28.9731C285.595 33.8333 285.58 38.6955 285.58 43.5576C285.58 43.7571 285.559 43.9548 285.546 44.1995H281.625C281.475 43.3411 281.321 42.4658 281.148 41.4851C279.887 42.7745 278.52 43.7439 276.89 44.2559C274.875 44.9289 272.708 45.004 270.65 44.4724C267.912 43.7477 266.078 42.0404 265.542 39.2131C264.979 36.2014 265.783 33.6131 268.378 31.7816C270.579 30.2268 273.119 29.6395 275.74 29.3646C277.43 29.1839 279.134 29.1143 280.882 28.9938ZM280.861 32.8301C280.11 32.8301 279.419 32.7943 278.724 32.8301C276.433 32.9656 274.161 33.2254 272.152 34.4715C270.637 35.4126 270.013 36.7981 270.37 38.2926C270.686 39.6103 271.797 40.4366 273.536 40.6418C273.66 40.655 273.788 40.6569 273.912 40.6588C278.125 40.7604 281.27 37.2649 280.861 32.8301Z" fill="#13120D"/>
<path d="M295.04 24.1033V44.1391H290.432V19.7476H310.224V44.124H305.618V24.1033H295.04Z" fill="#13120D"/>
<path d="M257.064 24.1278H249.955C249.854 25.8953 249.831 27.6308 249.64 29.3494C249.3 32.3612 249.045 35.4181 248.408 38.3847C247.557 42.3377 244.882 44.3254 240.852 44.4497C240.608 44.4497 240.362 44.4497 240.046 44.4497V40.1654C240.289 40.141 240.557 40.1221 240.822 40.0883C242.232 39.9113 243.368 39.2525 243.759 37.8539C244.224 36.1918 244.654 34.4883 244.793 32.7716C245.126 28.6605 245.28 24.5344 245.507 20.4158C245.518 20.1956 245.539 19.9753 245.558 19.7344H261.706V44.1899H257.064V24.1278Z" fill="#13120D"/>
<path d="M183.365 19.7007C183.674 19.7007 190.145 19.7007 193.11 19.7007C198.06 19.7007 201.935 23.2772 202.401 28.2861C202.82 32.7567 199.517 37.0861 194.89 37.8861C193.225 38.176 188.637 38.0913 187.989 38.0913V44.1487H183.365V19.7007ZM188.033 33.6169C189.877 33.6169 191.685 33.7261 193.478 33.5906C195.731 33.4193 197.483 31.3995 197.598 29.103C197.709 26.8555 196.176 24.5854 193.985 24.2917C192.047 24.0376 190.051 24.239 188.038 24.239L188.033 33.6169Z" fill="#13120D"/>
<path d="M152.78 44.1941V19.7593H157.386V27.6652C157.804 27.6652 162.386 27.5315 164.3 27.8534C167.445 28.3692 169.514 30.3983 170.427 33.4289C171.339 36.4595 170.723 39.2642 168.579 41.6473C166.994 43.4054 164.985 44.2299 162.61 44.211C159.62 44.1753 153.093 44.1941 152.78 44.1941ZM157.457 39.7837C157.754 39.7837 161.167 39.859 162.611 39.7273C164.534 39.5522 165.944 37.9127 166.01 36.0002C166.072 34.1612 164.788 32.3466 162.97 32.1527C161.152 31.9588 159.325 32.1113 157.457 32.1113V39.7837Z" fill="#13120D"/>
<path d="M315.853 44.1941V19.7593H320.476V27.6652C322.224 27.6652 323.875 27.6482 325.525 27.6652C326.228 27.6588 326.928 27.7218 327.617 27.8534C331.613 28.7193 334.255 32.5762 333.831 36.8699C333.421 40.9866 329.972 44.1753 325.886 44.1903C322.572 44.2035 319.256 44.1941 315.853 44.1941ZM320.532 39.7122C322.341 39.7122 324.13 39.8666 325.882 39.6708C327.884 39.4468 329.251 37.5155 329.074 35.5692C328.887 33.5325 327.264 32.0623 325.169 32.0473C324.19 32.0473 321.103 32.0473 320.531 32.0473L320.532 39.7122Z" fill="#13120D"/>
<path d="M102.837 44.1654H98.2478V34.4186C96.6914 35.2918 94.9584 35.8016 93.1779 35.9094C90.4946 36.0581 88.0385 35.533 86.0218 33.5829C84.5196 32.1353 83.8079 30.3396 83.7553 28.3123C83.684 25.5678 83.7722 19.885 83.7966 19.7494H88.3877C88.3877 20.5739 88.3389 26.0572 88.5079 27.9829C88.6957 30.0798 89.89 31.2054 91.9574 31.4294C93.947 31.647 95.9534 31.2096 97.6732 30.1833C98.0976 29.9386 98.2366 29.6186 98.2366 29.1424C98.214 26.2944 98.2253 20.06 98.2253 19.7476H102.835L102.837 44.1654Z" fill="#13120D"/>
<path d="M137.91 24.0979H130.618V19.7402H149.972V24.0696H142.709V44.1374H137.91V24.0979Z" fill="#13120D"/>
<path d="M173.225 19.7422H177.878V44.1582H173.225V19.7422Z" fill="#13120D"/>
<path d="M340.963 44.1565H336.294V19.7593H340.963V44.1565Z" fill="#13120D"/>
<path d="M64.0991 0H32.0496V63.9247H64.0991V0Z" fill="#F4BDC7"/>
<path d="M32.0495 0H0V63.9247H32.0495V0Z" fill="#FF6927"/>
<path d="M45.2953 31.1681C44.148 30.5733 43.9527 29.4401 45.1451 28.8001C45.7891 28.5705 47.5861 28.2354 49.3775 27.874C53.0692 27.1361 54.239 24.3295 54.162 20.7681C54.1526 20.3465 53.4823 19.9794 53.0598 20.0152C48.6152 20.1507 45.4605 21.3196 44.2212 16.9827C43.4194 14.5357 42.135 13.3215 41.4572 13.4251C40.5615 13.4251 41.0929 16.0171 40.8431 17.0015C40.7267 17.0015 39.4498 13.25 38.2143 13.4251C37.251 13.6133 37.6509 14.9818 37.5439 18.7559C37.4913 20.5893 37.3261 26.0105 33.702 27.2905C31.261 28.1846 27.0999 27.7818 23.7086 27.2679C21.8816 26.914 19.0142 24.9112 17.5947 21.9596C17.3599 21.474 16.9149 21.5323 16.7685 22.0519C16.192 24.0961 16.8943 27.2001 18.6462 29.3272C16.2371 31.1587 10.5249 35.6425 8.69412 40.3785C8.46879 41.1145 10.7033 42.7239 11.3511 42.2872C14.3105 39.7479 18.8809 35.8363 20.616 35.8458C20.877 36.1959 15.469 38.7653 11.8901 45.7206C11.676 46.4735 14.2804 48.465 14.9189 48.0076C17.9477 45.0335 19.5175 43.1549 23.7744 41.1446C26.7788 39.8269 32.0909 39.0326 36.99 40.2298C41.1961 41.2575 44.1855 42.9818 48.8292 46.4076C50.4798 47.6876 51.8918 45.3535 51.4787 44.2109C49.3437 39.6801 41.767 36.2128 42.0374 35.5145C42.2477 34.978 47.1543 37.5982 51.3755 40.1601C52.5021 40.5949 54.3235 38.5582 53.7733 37.6434C51.2496 34.3022 48.003 32.6778 45.2953 31.1681Z" fill="#13120D"/>
</g>
<defs>
<clipPath id="clip0_21_285">
<rect width="341" height="64" fill="white"/>
</clipPath>
</defs>
</svg>
